<svg xmlns="http://www.w3.org/2000/svg" fill="none" viewBox="0 0 110 22"><path fill="#fff" d="M95.6.3h3.06l3.53 14.65 3.52-14.64h2.7l-4.93 21.4h-2.6zm-1.24 0h2.92l.45 14.12v7.29h-3.37zm12.72 0h2.92v21.4h-3.35v-7.28zm-23.37 0 2.64 9.65 2.62-9.64h3.79l-4.66 13.62v7.78h-3.51v-7.78l-4.66-13.62zm-4.23 10.16v8.82q-.36.48-1.08 1.13a6.6 6.6 0 0 1-4.6 1.59q-1.44 0-2.61-.56a5.4 5.4 0 0 1-2.01-1.69 8 8 0 0 1-1.28-2.85q-.44-1.72-.44-4.07v-3.64q0-2.33.42-4.05t1.24-2.88a5 5 0 0 1 1.92-1.7q1.13-.56 2.55-.56 1.95 0 3.2.8a5 5 0 0 1 1.9 2.4q.65 1.59.78 3.9h-3.36a8 8 0 0 0-.37-2.12q-.27-.76-.77-1.09a2.3 2.3 0 0 0-1.3-.33q-.69 0-1.2.3t-.86.98-.5 1.73a17 17 0 0 0-.17 2.59v3.67q0 1.5.19 2.59.18 1.07.55 1.74.39.68.96.99a3 3 0 0 0 1.36.3q.63 0 1.01-.17.39-.16.61-.34l.4-.29v-3.94h-2.5v-3.25zm-26.08-10.16h5.55q1.74 0 2.96.74a4.7 4.7 0 0 1 1.88 2.18q.66 1.44.66 3.55 0 1.74-.38 2.97-.39 1.23-1.09 2.05t-1.67 1.29l-1.06.78h-4.5l-.02-3.57h3.13q.71 0 1.18-.38.47-.4.7-1.1.23-.73.23-1.68 0-1.02-.2-1.74a2 2 0 0 0-.66-1.11q-.45-.4-1.16-.4h-2.07v17.83h-3.48zm7.86 21.4-3.17-9.53 3.65-.02 3.24 9.35v.2zm-10.76-3.55v3.56h-7.52v-3.56zm-6.44-17.84v21.4h-3.49v-21.4zm5.43 8.67v3.45h-6.51v-3.45zm.99-8.67v3.57h-7.5v-3.57zm-17 13.86h-3.54v-3.57h3.54q.75 0 1.2-.42.48-.4.7-1.13.2-.74.2-1.64 0-.94-.22-1.72a3 3 0 0 0-.68-1.31q-.45-.5-1.2-.5h-2.42v17.83h-3.47v-21.4h5.9a5 5 0 0 1 3 .91q1.26.9 1.93 2.51.68 1.6.68 3.65 0 2.07-.68 3.6a5.3 5.3 0 0 1-1.93 2.35 5.3 5.3 0 0 1-3 .84m-12.04-13.87h3.47v14.7q0 2.48-.73 4.03a5 5 0 0 1-2.01 2.26 6 6 0 0 1-2.94.71 6 6 0 0 1-2.96-.7 5 5 0 0 1-2.02-2.27 10 10 0 0 1-.72-4.03v-14.7h3.48v14.7q0 1.4.25 2.15.26.75.74 1.03.51.27 1.23.26.75 0 1.21-.26.49-.28.74-1.03.26-.75.26-2.15zm-13.6 15.78a6 6 0 0 0-.09-1.05q-.08-.46-.35-.86a3 3 0 0 0-.78-.8 9 9 0 0 0-1.3-.82q-.97-.5-1.87-1.06a9 9 0 0 1-1.63-1.32 6 6 0 0 1-1.15-1.76 6 6 0 0 1-.42-2.41q0-1.35.4-2.46a5.4 5.4 0 0 1 2.86-3.1q1-.43 2.22-.43 1.67 0 2.88.86a5.5 5.5 0 0 1 1.9 2.33q.66 1.5.67 3.41h-3.47q0-.9-.22-1.6a2.3 2.3 0 0 0-.65-1.1 1.7 1.7 0 0 0-1.17-.4q-.66 0-1.1.34-.43.32-.64.9-.2.56-.2 1.26 0 .52.2.96.2.4.58.75.36.32.87.63.51.3 1.11.6 1.18.57 2.09 1.26.9.67 1.5 1.53.6.84.92 1.9a8.6 8.6 0 0 1-.07 4.85q-.37 1.08-1.08 1.88-.72.78-1.73 1.2-.99.43-2.23.43-1.2 0-2.27-.41a5.4 5.4 0 0 1-3.17-3.47q-.45-1.34-.46-3.16h3.48q0 .97.16 1.66.15.67.47 1.09.33.39.79.6.48.2 1.08.2.7 0 1.1-.33.4-.32.59-.87.18-.54.18-1.23"/></svg>