<svg xmlns="http://www.w3.org/2000/svg" xmlns:xlink="http://www.w3.org/1999/xlink"><symbol id="sprite-arrow-next" fill="none" viewBox="0 0 18 32"><path stroke="#102654" d="m1 0 16 16-16 16"/></symbol><use xlink:href="#sprite-arrow-next" width="18" height="32"/><view id="sprite-arrow-next-view" viewBox="0 0 18 32"/><symbol id="sprite-arrow-prev" fill="none" viewBox="0 0 18 32"><path stroke="#102654" d="m17 0-16 16 16 16"/></symbol><use xlink:href="#sprite-arrow-prev" width="18" height="32" y="32"/><view id="sprite-arrow-prev-view" viewBox="0 32 18 32"/><symbol id="sprite-ok" fill="none" viewBox="0 0 10 17"><path fill="#030A1A" d="M4.68 2.89c.9 0 1.63.75 1.63 1.68s-.73 1.68-1.63 1.68-1.63-.75-1.63-1.68.73-1.68 1.63-1.68m0 5.74a4 4 0 0 0 3.94-4.06 4 4 0 0 0-3.94-4.06 4 4 0 0 0-3.93 4.06 4 4 0 0 0 3.93 4.06m1.6 3.31a7 7 0 0 0 2.28-.97c.53-.35.7-1.09.36-1.64a1.13 1.13 0 0 0-1.6-.38 4.9 4.9 0 0 1-5.29 0 1.13 1.13 0 0 0-1.59.38 1.2 1.2 0 0 0 .37 1.64q1.07.69 2.28.97l-2.2 2.27a1.2 1.2 0 0 0 0 1.68 1.14 1.14 0 0 0 1.63 0l2.16-2.23 2.16 2.23c.45.47 1.18.47 1.63 0s.45-1.21 0-1.68z"/></symbol><use xlink:href="#sprite-ok" width="10" height="17" y="64"/><view id="sprite-ok-view" viewBox="0 64 10 17"/><symbol id="sprite-play-desktop" viewBox="0 0 13 15"><path d="m13 7.5-12.75 7.36v-14.72z"/></symbol><use xlink:href="#sprite-play-desktop" width="13" height="15" y="81"/><view id="sprite-play-desktop-view" viewBox="0 81 13 15"/><symbol id="sprite-play-mobile" fill="none" viewBox="0 0 9 12"><path fill="#fff" d="m9 6-9 5.2v-10.4z"/></symbol><use xlink:href="#sprite-play-mobile" width="9" height="12" y="96"/><view id="sprite-play-mobile-view" viewBox="0 96 9 12"/><symbol id="sprite-reddit" fill="none" viewBox="0 0 15 15"><path fill="#030A1A" d="M8.85.56c-.44 0-.86.22-1.13.55s-.42.72-.52 1.14a10 10 0 0 0-.24 2.1 7 7 0 0 0-3.33 1.02 2 2 0 0 0-1.28-.5c-.5 0-.98.23-1.33.67-.68.85-.6 2.24.18 3.06a4 4 0 0 0-.08.78c0 2.8 2.86 5.06 6.38 5.06s6.38-2.26 6.38-5.06q0-.39-.08-.78c.78-.82.86-2.21.18-3.06a1.7 1.7 0 0 0-1.33-.66 2 2 0 0 0-1.28.49 7 7 0 0 0-3.31-1.03 8 8 0 0 1 .18-1.75q.12-.46.27-.64c.1-.13.17-.18.34-.18.36 0 .4.12.63.4q.14.23.44.5c.2.17.5.32.82.32v-1.22c-.09 0-.1 0-.17-.05l-.27-.35c-.25-.32-.73-.81-1.45-.81m3.51.11c-.84 0-1.52.77-1.52 1.71 0 .95.68 1.71 1.52 1.71s1.52-.76 1.52-1.7c0-.95-.68-1.72-1.52-1.72m0 .6c.54 0 .98.5.98 1.11s-.44 1.1-.98 1.1-.98-.49-.98-1.1.44-1.1.98-1.1m-4.86 4.01c3 0 5.52 1.88 5.52 4.1s-2.53 4.08-5.52 4.08-5.52-1.87-5.52-4.09 2.53-4.09 5.52-4.09m-5.13.56q.22 0 .45.11a5 5 0 0 0-1.26 1.6c-.2-.47-.15-1.06.1-1.37a1 1 0 0 1 .7-.34m10.27 0a1 1 0 0 1 .71.34c.25.31.3.9.1 1.37a5 5 0 0 0-1.26-1.6q.23-.1.45-.11m-7.3 1.52c-.53 0-.97.5-.97 1.1s.44 1.1.98 1.1.98-.5.98-1.1-.44-1.1-.98-1.1m4.32 0c-.54 0-.98.5-.98 1.1s.44 1.1.98 1.1.98-.5.98-1.1-.44-1.1-.98-1.1m-4.85 3.75c.35.8 1.41 1.58 2.69 1.58s2.36-.78 2.7-1.58c-.62.45-1.6.76-2.7.76s-2.06-.31-2.69-.76"/></symbol><use xlink:href="#sprite-reddit" width="15" height="15" y="108"/><view id="sprite-reddit-view" viewBox="0 108 15 15"/><symbol id="sprite-rouble-desktop" fill="none" viewBox="0 0 30 42"><path fill="#102654" fill-rule="evenodd" d="M0 17h6v6h-6z" clip-rule="evenodd"/><path fill="#102654" fill-rule="evenodd" d="M3.66 28.32v-10.32h6v10.32h11.34v6h-11.34v7.68h-6v-7.68h-3.66v-6z" clip-rule="evenodd"/><path fill="#102654" fill-rule="evenodd" d="M18.5 6h-8.5v11h8.5a5.5 5.5 0 1 0 0-11m-14.5-6v23h14.5a11.5 11.5 0 0 0 0-23z" clip-rule="evenodd"/></symbol><use xlink:href="#sprite-rouble-desktop" width="30" height="42" y="123"/><view id="sprite-rouble-desktop-view" viewBox="0 123 30 42"/><symbol id="sprite-rouble-mobile" fill="none" viewBox="0 0 24 34"><path fill="#102654" fill-rule="evenodd" d="M14.8 5.21h-6.8v8.65h6.8c2.43 0 4.4-1.94 4.4-4.32a4.36 4.36 0 0 0-4.4-4.33m-11.6-4.71v18.07h11.6c5.08 0 9.2-4.04 9.2-9.03s-4.12-9.04-9.2-9.04z" clip-rule="evenodd"/><path fill="#102654" fill-rule="evenodd" d="M0 13.86h4.8v4.71h-4.8z" clip-rule="evenodd"/><path fill="#102654" fill-rule="evenodd" d="M2.93 22.75v-8.1h4.8v8.1h9.07v4.72h-9.07v6.03h-4.8v-6.03h-2.93v-4.72z" clip-rule="evenodd"/></symbol><use xlink:href="#sprite-rouble-mobile" width="24" height="34" y="165"/><view id="sprite-rouble-mobile-view" viewBox="0 165 24 34"/><symbol id="sprite-vk" fill="none" viewBox="0 0 15 15"><path fill="#030A1A" d="M8.72 9.05c.45-.14 1.01.95 1.62 1.36.45.32.8.25.8.25l1.6-.02s.84-.06.45-.72c-.04-.06-.24-.5-1.2-1.4-1-.95-.87-.8.34-2.43q1.1-1.48.94-1.87c-.08-.25-.63-.18-.63-.18l-1.8.01q-.29-.02-.4.24s-.3.77-.67 1.43c-.8 1.38-1.13 1.45-1.26 1.37-.31-.2-.23-.8-.23-1.24 0-1.34.2-1.9-.4-2.04a3 3 0 0 0-.84-.09c-.65 0-1.2 0-1.5.16-.2.1-.37.33-.27.34.12.02.39.07.53.27.19.26.18.83.18.83s.11 1.58-.25 1.77c-.24.14-.58-.14-1.3-1.4-.36-.64-.64-1.35-.64-1.35s-.05-.13-.15-.2c-.12-.08-.28-.11-.28-.11h-1.72s-.26.02-.35.13 0 .31 0 .31 1.34 3.19 2.87 4.79c1.4 1.47 2.98 1.38 2.98 1.38h.72s.22-.03.33-.15c.1-.1.1-.32.1-.32s-.01-.98.43-1.12"/></symbol><use xlink:href="#sprite-vk" width="15" height="15" y="199"/><view id="sprite-vk-view" viewBox="0 199 15 15"/></svg>